<svg width="30" height="31" viewBox="0 0 30 31" fill="none" xmlns="http://www.w3.org/2000/svg">
<path d="M12.2966 14.2274C13.7756 16.6874 13.5581 19.5824 11.7891 20.7524C10.0201 21.8924 7.38107 20.8274 5.88757 18.3674C4.40857 15.9074 4.64057 12.9824 6.40957 11.8424C8.17857 10.7024 10.8176 11.7674 12.2966 14.2274ZM14.7471 24.4574C17.6471 24.4574 18.3721 23.3324 18.3721 23.3324C18.3721 23.3324 17.6471 26.3324 14.7471 26.3324C11.8471 26.3324 11.1221 23.3774 11.1221 23.3324C11.1221 23.3324 11.8471 24.4574 14.7471 24.4574ZM23.0846 11.8424C24.8536 12.9824 25.0856 15.9074 23.6066 18.3674C22.1131 20.8274 19.4741 21.8924 17.7051 20.7524C15.9361 19.5824 15.7186 16.6874 17.1976 14.2274C18.6766 11.7674 21.3156 10.7024 23.0846 11.8424ZM14.7471 27.8324C18.3721 27.8324 26.3471 20.1224 26.3471 14.3324C26.3471 8.5424 21.1416 3.8324 14.7471 3.8324C8.35257 3.8324 3.14707 8.5424 3.14707 14.3324C3.14707 20.1224 11.1221 27.8324 14.7471 27.8324ZM14.7471 0.832397C22.7221 0.832397 29.2471 6.8924 29.2471 14.3324C29.2471 20.4524 21.0111 30.8324 14.7471 30.8324C8.48307 30.8324 0.24707 20.4524 0.24707 14.3324C0.24707 6.8924 6.77207 0.832397 14.7471 0.832397Z" fill="#02E4C0"/>
</svg>
