<svg width="30" height="31" viewBox="0 0 30 31" fill="none" xmlns="http://www.w3.org/2000/svg">
<path d="M13.9458 7.46289H6.98795C6.46072 7.46289 5.95507 7.67234 5.58226 8.04515C5.20944 8.41796 5 8.92361 5 9.45084V23.3665C5 23.8938 5.20944 24.3994 5.58226 24.7722C5.95507 25.145 6.46072 25.3545 6.98795 25.3545H20.9036C21.4309 25.3545 21.9365 25.145 22.3093 24.7722C22.6821 24.3994 22.8916 23.8938 22.8916 23.3665V16.4087" stroke="#B2C2CB" stroke-width="1.5" stroke-linecap="round" stroke-linejoin="round"/>
<path d="M21.4006 5.97207C21.7961 5.57664 22.3324 5.35449 22.8916 5.35449C23.4508 5.35449 23.9871 5.57664 24.3826 5.97207C24.778 6.3675 25.0001 6.90382 25.0001 7.46304C25.0001 8.02226 24.778 8.55857 24.3826 8.954L14.9398 18.3968L10.9639 19.3908L11.9578 15.4149L21.4006 5.97207Z" stroke="#B2C2CB" stroke-width="1.5" stroke-linecap="round" stroke-linejoin="round"/>
</svg>
