<svg width="25" height="25" viewBox="0 0 25 25" fill="none" xmlns="http://www.w3.org/2000/svg">
<path d="M12.501 15.5C14.1578 15.5 15.501 14.1569 15.501 12.5C15.501 10.8431 14.1578 9.5 12.501 9.5C10.8441 9.5 9.50098 10.8431 9.50098 12.5C9.50098 14.1569 10.8441 15.5 12.501 15.5Z" fill="#72E4F9"/>
<path d="M23.5091 11.6844C22.2687 9.76625 20.6595 8.13688 18.8558 6.97203C16.8603 5.68203 14.6572 5 12.485 5C10.4919 5 8.53203 5.56953 6.65984 6.69266C4.75062 7.83781 3.02093 9.51078 1.51859 11.6647C1.34899 11.9081 1.25558 12.1965 1.25024 12.4931C1.2449 12.7897 1.32786 13.0813 1.48859 13.3306C2.72656 15.268 4.31984 16.8997 6.09547 18.0486C8.09468 19.3438 10.2462 20 12.485 20C14.6745 20 16.8823 19.3236 18.8694 18.0444C20.6722 16.8833 22.2781 15.2478 23.5137 13.3137C23.6689 13.0702 23.751 12.7872 23.7502 12.4984C23.7493 12.2096 23.6656 11.9271 23.5091 11.6844ZM12.5009 17C11.6109 17 10.7409 16.7361 10.0009 16.2416C9.26085 15.7471 8.68407 15.0443 8.34348 14.2221C8.00288 13.3998 7.91377 12.495 8.0874 11.6221C8.26103 10.7492 8.68962 9.94736 9.31895 9.31802C9.94829 8.68868 10.7501 8.2601 11.623 8.08647C12.4959 7.91283 13.4007 8.00195 14.223 8.34254C15.0453 8.68314 15.7481 9.25991 16.2425 9.99993C16.737 10.74 17.0009 11.61 17.0009 12.5C16.9996 13.6931 16.525 14.8369 15.6814 15.6805C14.8378 16.5241 13.694 16.9986 12.5009 17Z" fill="#72E4F9"/>
</svg>
