<svg width="42" height="20" viewBox="0 0 42 20" fill="none" xmlns="http://www.w3.org/2000/svg">
<path d="M32.0221 0.332438C29.5621 0.332438 27.2387 1.32128 25.5817 3.0341L13.5721 14.0527C12.4787 15.1828 11.0267 15.8008 9.47207 15.8008C6.27749 15.8008 3.66374 13.1345 3.66374 9.83242C3.66374 6.53038 6.27749 3.86403 9.47207 3.86403C11.0267 3.86403 12.4787 4.48206 13.6404 5.6828L15.5708 7.44859L18.1846 5.08243L15.9979 3.12239C15.1424 2.23478 14.1252 1.53121 13.0051 1.05234C11.885 0.573463 10.6842 0.328783 9.47207 0.332438C4.38124 0.332438 0.24707 4.60566 0.24707 9.83242C0.24707 15.0592 4.38124 19.3324 9.47207 19.3324C11.9321 19.3324 14.2554 18.3436 15.9125 16.6307L27.9221 5.61217C29.0154 4.48206 30.4675 3.86403 32.0221 3.86403C35.2167 3.86403 37.8304 6.53038 37.8304 9.83242C37.8304 13.1345 35.2167 15.8008 32.0221 15.8008C30.4846 15.8008 29.0154 15.1828 27.8537 13.982L25.8721 12.1986L23.3096 14.5648L25.4962 16.5424C26.354 17.4256 27.372 18.1251 28.4919 18.6008C29.6117 19.0766 30.8114 19.3192 32.0221 19.3147C37.1129 19.3147 41.2471 15.0592 41.2471 9.83242C41.2471 4.53503 37.1129 0.332438 32.0221 0.332438Z" fill="#02E4C0"/>
</svg>
