<svg width="27" height="24" viewBox="0 0 27 24" fill="none" xmlns="http://www.w3.org/2000/svg">
<path d="M7.89929 13.6089L11.6726 9.83554L3.41929 1.59554C2.77929 0.955542 1.67262 1.12888 1.27262 1.95554C0.325954 3.94221 0.67262 6.38221 2.31262 8.03554L7.89929 13.6089ZM16.9393 11.1955C18.9793 12.1422 21.846 11.4755 23.966 9.35554C26.5126 6.80887 27.006 3.15554 25.046 1.19554C23.0993 -0.751124 19.446 -0.271124 16.886 2.27554C14.766 4.39554 14.0993 7.26221 15.046 9.30221L2.96595 21.3822C2.71665 21.6315 2.57659 21.9696 2.57659 22.3222C2.57659 22.6748 2.71665 23.0129 2.96595 23.2622C3.21526 23.5115 3.55339 23.6516 3.90595 23.6516C4.25852 23.6516 4.59665 23.5115 4.84595 23.2622L13.0993 15.0355L21.3393 23.2755C21.4627 23.399 21.6093 23.4969 21.7706 23.5637C21.9318 23.6305 22.1047 23.6649 22.2793 23.6649C22.4539 23.6649 22.6267 23.6305 22.788 23.5637C22.9493 23.4969 23.0958 23.399 23.2193 23.2755C23.3427 23.1521 23.4407 23.0055 23.5075 22.8443C23.5743 22.683 23.6087 22.5101 23.6087 22.3355C23.6087 22.161 23.5743 21.9881 23.5075 21.8268C23.4407 21.6655 23.3427 21.519 23.2193 21.3955L14.9793 13.1555L16.9393 11.1955Z" fill="#02E4C0"/>
</svg>
